<?xml version="1.0" standalone="no"?><!DOCTYPE svg PUBLIC "-//W3C//DTD SVG 1.1//EN" "http://www.w3.org/Graphics/SVG/1.1/DTD/svg11.dtd"><svg t="1542608664255" class="icon" style="" viewBox="0 0 1024 1024" version="1.1" xmlns="http://www.w3.org/2000/svg" p-id="3224" xmlns:xlink="http://www.w3.org/1999/xlink" width="200" height="200"><defs><style type="text/css"></style></defs><path d="M832 128H192a64.19 64.19 0 0 0-64 64v640a64.19 64.19 0 0 0 64 64h640a64.19 64.19 0 0 0 64-64V192a64.19 64.19 0 0 0-64-64z m-39.45 628.4l-36.12 36.12a25.54 25.54 0 0 1-36.12 0l-277-277a153.27 153.27 0 0 1-204.38-204.39L341.1 413.31l72.23-72.23L311.16 238.9a153.27 153.27 0 0 1 204.35 204.35l277 277a25.54 25.54 0 0 1 0.04 36.15z" p-id="3225"></path></svg>