<?xml version="1.0" standalone="no"?><!DOCTYPE svg PUBLIC "-//W3C//DTD SVG 1.1//EN" "http://www.w3.org/Graphics/SVG/1.1/DTD/svg11.dtd"><svg t="1542609389233" class="icon" style="" viewBox="0 0 1024 1024" version="1.1" xmlns="http://www.w3.org/2000/svg" p-id="5526" xmlns:xlink="http://www.w3.org/1999/xlink" width="200" height="200"><defs><style type="text/css"></style></defs><path d="M747.5 701.2H347c-22.1 0-40-17.9-40-40s17.9-40 40-40h400.5c22.1 0 40 17.9 40 40s-17.9 40-40 40zM747.5 855H347c-22.1 0-40-17.9-40-40s17.9-40 40-40h400.5c22.1 0 40 17.9 40 40s-17.9 40-40 40zM747.5 547.3H347c-22.1 0-40-17.9-40-40s17.9-40 40-40h400.5c22.1 0 40 17.9 40 40s-17.9 40-40 40zM159 656.7H41c-22.1 0-40-17.9-40-40s17.9-40 40-40h118c22.1 0 40 17.9 40 40s-17.9 40-40 40zM159 855H41c-22.1 0-40-17.9-40-40s17.9-40 40-40h118c22.1 0 40 17.9 40 40s-17.9 40-40 40zM159 260H41c-22.1 0-40-17.9-40-40s17.9-40 40-40h118c22.1 0 40 17.9 40 40s-17.9 40-40 40zM159 458.3H41c-22.1 0-40-17.9-40-40s17.9-40 40-40h118c22.1 0 40 17.9 40 40s-17.9 40-40 40z" fill="" p-id="5527"></path><path d="M863 80v860H151V80h712m20-80H131C97.9 0 71 26.9 71 60v900c0 33.1 26.9 60 60 60h752c33.1 0 60-26.9 60-60V60c0-33.1-26.9-60-60-60z" fill="" p-id="5528"></path><path d="M710 220v47H384v-47H710m58.3-80H324.7c-19.2 0-20.7 5.5-20.7 12.2v182.6c0 6.7 1.5 12.2 20.7 12.2h443.6c19.2 0 21.7-5.5 21.7-12.2V152.2c0-6.7-2.5-12.2-21.7-12.2z" fill="" p-id="5529"></path></svg>