<?xml version="1.0" standalone="no"?><!DOCTYPE svg PUBLIC "-//W3C//DTD SVG 1.1//EN" "http://www.w3.org/Graphics/SVG/1.1/DTD/svg11.dtd"><svg class="icon" width="200px" height="200.00px" viewBox="0 0 1024 1024" version="1.1" xmlns="http://www.w3.org/2000/svg"><path d="M 699.385 942.838 l -185.2 -45.5111 L 335.538 942.838 V 634.698 h 363.846 Z" fill="#003df0" /><path d="M 335.538 902.303 v 5.5827 l 178.646 -45.5111 l 185.2 45.5111 v -5.5827 l -185.2 -45.5111 Z" fill="#ffffff" /><path d="M 335.538 872.933 v 12.5004 l 178.646 -45.3898 l 185.2 45.3898 v -12.5004 l -185.2 -45.5111 Z" fill="#ffffff" /><path d="M 517.34 85.166 c 24.7581 84.1045 126.339 117.115 195.758 63.5941 c 4.36907 -3.39817 10.5586 1.09227 8.73813 6.31088 c -29.3698 82.6482 33.3748 168.938 120.999 166.51 c 5.5827 -0.121363 7.88859 7.03905 3.2768 10.1945 c -72.3323 49.5161 -72.3323 156.316 0 205.831 c 4.61179 3.15543 2.3059 10.3159 -3.2768 10.1945 c -87.624 -2.42725 -150.369 83.9831 -120.999 166.51 c 1.82045 5.21861 -4.2477 9.70903 -8.73813 6.31088 c -69.541 -53.5211 -171.001 -20.5104 -195.758 63.5941 c -1.57772 5.33997 -9.10222 5.33997 -10.6799 0 c -24.7581 -83.8619 -126.339 -116.873 -195.879 -63.4729 c -4.36907 3.39817 -10.5586 -1.09227 -8.73813 -6.31088 c 29.3698 -82.6482 -33.3748 -168.938 -120.999 -166.51 c -5.5827 0.121363 -7.88859 -7.03905 -3.2768 -10.1945 c 72.3323 -49.5161 72.3323 -156.316 0 -205.831 c -4.61179 -3.15543 -2.3059 -10.3159 3.2768 -10.1945 c 87.624 2.42725 150.369 -83.9831 120.999 -166.51 c -1.82045 -5.21861 4.2477 -9.70903 8.73813 -6.31088 c 69.541 53.5211 171.001 20.5104 195.758 -63.5941 c 1.69908 -5.46133 9.22358 -5.46133 10.8013 -0.121363 Z" fill="#ffa326" /><path d="M 512 739.677 l -3.15543 -5.46133 c -24.0299 -41.8702 -67.4779 -66.8709 -116.266 -66.8709 c -18.8112 0 -37.0157 3.88362 -54.0065 11.5295 l -5.82542 2.54862 l 0.728178 -6.31088 c 3.51952 -31.9184 -4.97588 -64.2011 -23.9085 -91.0222 c -19.5394 -27.6707 -48.4238 -46.7248 -81.5559 -53.7637 l -6.18951 -1.33499 l 4.2477 -4.73315 c 22.2094 -24.6367 34.3457 -56.4338 34.3457 -89.5659 s -12.2576 -64.9292 -34.3457 -89.5659 l -4.2477 -4.73315 l 6.18951 -1.33499 c 33.1321 -7.03905 62.0165 -26.093 81.5559 -53.7637 c 18.8112 -26.6998 27.3067 -59.1038 23.9085 -91.0222 l -0.728178 -6.31088 l 5.82542 2.54862 c 16.9908 7.64587 35.1952 11.5295 54.0065 11.5295 c 48.7879 0 92.2357 -25.0007 116.266 -66.8709 l 3.15543 -5.46133 l 3.15543 5.46133 c 24.0299 41.8702 67.4779 66.8709 116.266 66.8709 c 18.8112 0 37.0157 -3.88362 54.0065 -11.5295 l 5.82542 -2.54862 l -0.728178 6.31088 c -3.51952 31.9184 4.97588 64.2011 23.9085 91.0222 c 19.5394 27.6707 48.4238 46.7248 81.5559 53.7637 l 6.18951 1.33499 l -4.2477 4.73315 c -22.2094 24.6367 -34.3457 56.4338 -34.3457 89.5659 s 12.2576 64.9292 34.3457 89.5659 l 4.2477 4.73315 l -6.18951 1.33499 c -33.1321 7.03905 -62.0165 26.093 -81.5559 53.7637 c -18.8112 26.6998 -27.3067 59.1038 -23.9085 91.0222 l 0.728178 6.31088 l -5.82542 -2.54862 c -16.9908 -7.64587 -35.1952 -11.5295 -54.0065 -11.5295 c -48.7879 0 -92.2357 25.0007 -116.266 66.8709 l -3.15543 5.46133 Z M 392.579 660.063 c 25.2435 0 50.0016 6.5536 71.4828 19.054 c 19.4181 11.2867 35.9234 27.1853 47.9383 46.2393 c 12.0149 -19.054 28.5203 -34.9525 47.9383 -46.2393 c 21.4813 -12.5004 46.1179 -19.054 71.4828 -19.054 c 17.8403 0 35.0739 3.2768 51.3365 9.70903 c -2.06317 -31.6757 7.03905 -63.3515 25.729 -89.9299 c 19.4181 -27.5493 47.6957 -46.9675 80.0995 -55.3415 c -20.8745 -25.2435 -32.2826 -56.9193 -32.2826 -89.8085 s 11.4081 -64.5651 32.2826 -89.8085 c -32.4039 -8.37405 -60.6815 -27.7921 -80.0995 -55.3415 c -18.6899 -26.4571 -27.6707 -58.2542 -25.729 -89.9299 c -16.384 6.43223 -33.6176 9.70903 -51.3365 9.70903 c -25.2435 0 -50.0016 -6.5536 -71.4828 -19.054 c -19.4181 -11.2867 -35.9234 -27.1853 -47.9383 -46.2393 c -12.0149 19.054 -28.5203 34.9525 -47.9383 46.2393 c -21.4813 12.5004 -46.2393 19.054 -71.4828 19.054 c -17.8403 0 -35.0739 -3.2768 -51.3365 -9.70903 c 2.06317 31.6757 -7.03905 63.3515 -25.729 89.9299 c -19.4181 27.5493 -47.6957 46.9675 -80.0995 55.3415 c 20.8745 25.2435 32.2826 56.9193 32.2826 89.8085 s -11.4081 64.5651 -32.2826 89.8085 c 32.4039 8.37405 60.6815 27.7921 80.0995 55.3415 c 18.6899 26.4571 27.6707 58.2542 25.729 89.9299 c 16.2626 -6.43223 33.6176 -9.70903 51.3365 -9.70903 Z" fill="#ffffff" /><path d="M 512 648.291 c -117.723 0 -213.599 -95.7553 -213.599 -213.599 s 95.7553 -213.599 213.599 -213.599 s 213.599 95.7553 213.599 213.599 s -95.8772 213.599 -213.599 213.599 Z m 0 -419.794 c -113.717 0 -206.317 92.4786 -206.317 206.317 s 92.4786 206.317 206.317 206.317 s 206.317 -92.4786 206.317 -206.317 s -92.6 -206.317 -206.317 -206.317 Z" fill="#ffffff" /><path d="M 512 434.813 m -181.923 0 a 181.923 181.923 0 1 0 363.846 0 a 181.923 181.923 0 1 0 -363.846 0 Z" fill="#ffc12a" /></svg>