<?xml version="1.0" standalone="no"?><!DOCTYPE svg PUBLIC "-//W3C//DTD SVG 1.1//EN" "http://www.w3.org/Graphics/SVG/1.1/DTD/svg11.dtd"><svg t="1516418081834" class="icon" style="" viewBox="0 0 1024 1024" version="1.1" xmlns="http://www.w3.org/2000/svg" p-id="8733" xmlns:xlink="http://www.w3.org/1999/xlink" width="200" height="200"><defs><style type="text/css"></style></defs><path d="M515.3 404.8m-74.1 0a74.1 74.1 0 1 0 148.2 0 74.1 74.1 0 1 0-148.2 0Z" p-id="8734"></path><path d="M737.5 136.6c-85 0-161.8-26.8-226.4-72.4C446.6 109.8 365 136.6 280 136.6c-36.4 0-71.9-5-108-14.2V539.1c12 163.8 131.9 312 336.4 420.5C713 851.1 844.9 702.9 844.9 539.1V120.7c-36.1 10.3-68.8 15.9-107.4 15.9z m-181 431.3V741.1c0 26.4-21.6 48.1-48.1 48.1-26.4 0-48.1-21.6-48.1-48.1V567.9c-72.1-20.8-119-86-119-163.2 0-93.8 78.3-170.2 172.2-170.2s167.9 76.3 167.9 170.2c0.1 77.2-52.8 142.4-124.9 163.2z" p-id="8735"></path></svg>