<?xml version="1.0" standalone="no"?><!DOCTYPE svg PUBLIC "-//W3C//DTD SVG 1.1//EN" "http://www.w3.org/Graphics/SVG/1.1/DTD/svg11.dtd"><svg t="1516418141881" class="icon" style="" viewBox="0 0 1024 1024" version="1.1" xmlns="http://www.w3.org/2000/svg" p-id="8970" xmlns:xlink="http://www.w3.org/1999/xlink" width="200" height="200"><defs><style type="text/css"></style></defs><path d="M888.32 796.544c-6.272-2.432-11.008-3.968-14.208-4.736-1.536 16.512-3.584 29.568-5.888 39.04-1.536 14.208-5.504 20.864-11.776 20.096-5.504 1.536-11.008-4.352-16.512-17.792-8.704-15.744-14.976-43.776-18.944-83.968l92.288-10.624-4.736-47.36-91.008 10.624c-0.768-11.008-1.536-25.984-2.432-44.928-1.536-17.28-2.432-30.336-2.432-39.04L764.16 617.856c0.768 25.984 2.688 55.936 5.888 89.856l-53.248 5.888 5.888 48.512 50.816-5.888c4.736 49.664 13.056 84.352 24.832 104.064 14.208 25.984 34.688 39.04 61.44 39.04 24.448 0.768 40.192-13.824 47.232-43.776 2.432-15.744 4.736-28.8 7.04-39.04 0.768-4.736 1.536-8.32 2.432-10.624C911.232 804.48 901.76 801.28 888.32 796.544z" p-id="8971"></path><path d="M867.072 692.48l33.152-33.152c-14.976-13.44-30.72-25.984-47.36-37.888l-30.72 29.568C842.624 668.416 857.6 682.24 867.072 692.48z" p-id="8972"></path><path d="M686.08 617.984c-14.208 48.128-33.92 89.856-59.136 125.312 0.768 6.272 2.432 15.744 4.736 28.416 1.536 14.976 3.2 25.984 4.736 33.152 9.472-11.776 18.56-23.68 27.136-35.456l0 128.896 47.36 0L710.912 691.328c8.704-18.944 16.512-38.272 23.68-57.984L686.08 617.984z" p-id="8973"></path><path d="M469.632 429.696m-60.928 0a47.6 47.6 0 1 0 121.856 0 47.6 47.6 0 1 0-121.856 0Z" p-id="8974"></path><path d="M775.296 538.88c22.016 0 43.392 3.328 63.488 9.472L838.784 239.616c0-51.712-41.856-93.568-93.568-93.568l-462.08 0c-51.712 0-93.568 41.856-93.568 93.568l0 545.152c0 51.712 41.856 93.568 93.568 93.568l303.616 0 3.2-4.096c-21.248-33.792-33.664-73.6-33.664-116.352C556.16 636.928 654.208 538.88 775.296 538.88zM497.152 595.072l-52.864 0c-26.112-93.824-105.6-59.392-105.6-59.392l-28.032-45.952c72.064-68.352 0-118.656 0-118.656 0 0 0.896-1.408 27.52-45.824 92.032 25.6 106.496-60.928 106.496-60.928l52.224 0c16.768 86.4 106.88 61.056 106.88 61.056s-0.384 0.768 25.728 44.288c-67.968 62.464-0.384 120.832-0.384 120.832s-0.384 0.384-25.856 43.904C513.664 508.928 497.152 595.072 497.152 595.072z" p-id="8975"></path></svg>