<?xml version="1.0" standalone="no"?><!DOCTYPE svg PUBLIC "-//W3C//DTD SVG 1.1//EN" "http://www.w3.org/Graphics/SVG/1.1/DTD/svg11.dtd"><svg t="1516418069771" class="icon" style="" viewBox="0 0 1024 1024" version="1.1" xmlns="http://www.w3.org/2000/svg" p-id="8615" xmlns:xlink="http://www.w3.org/1999/xlink" width="300" height="300"><defs><style type="text/css"></style></defs><path d="M380.8 590.5l78.1-78.1L194.4 248c-56.7 68.4-91.8 155.4-95 250.4 8.3-0.6 16.7-0.9 25-0.9 97.9-0.6 187.4 34.5 256.4 93z m217-217.1c-63.7-71.1-102.7-164.8-103-267.2 0-2.6 0-5.3 0.1-7.9-93 4.1-178.1 39-245.3 94.6L514 457.2l83.8-83.8z m180.3-180.3c-57.3-47.5-127.7-79.9-204.9-91v4.3c0.2 80.9 30.4 155 80 211.7l124.9-125z m118 236.2c7.9 0 15.7-0.2 23.5-0.8-13.9-67.6-44.2-129.1-86.5-180.3l-122 122.1c52.4 37 116.3 58.8 185 59z m32 77.2c-10.5 0.8-21.1 1.2-31.8 1.2-90.4-0.2-173.9-30.6-241.2-81.5L569 512.3l264.1 264.1c59.3-71.7 95-163.7 95-264.1 0.1-1.9 0-3.9 0-5.8z m-493.2 140c53.4 67.5 85.1 153 84.6 246-0.1 11.5-0.6 22.9-1.6 34.3 98.8-1 189.4-36.5 260.2-95.2L513.9 567.4l-79 79.1zM249.6 831.8c53.9 44.6 119.2 75.8 190.9 88.6 0.8-9.1 1.3-18.2 1.3-27.4 0.4-71.6-22.9-137.7-62.6-190.8L249.6 831.8zM124.1 575.2c-6.7 0-13.4 0.3-20 0.7 11.6 75.6 43.7 144.5 90.4 200.8l130.8-130.8c-54.8-44.6-124.8-71.1-201.2-70.7z" p-id="8616"></path></svg>