<?xml version="1.0" standalone="no"?><!DOCTYPE svg PUBLIC "-//W3C//DTD SVG 1.1//EN" "http://www.w3.org/Graphics/SVG/1.1/DTD/svg11.dtd"><svg t="1542608933647" class="icon" style="" viewBox="0 0 1024 1024" version="1.1" xmlns="http://www.w3.org/2000/svg" p-id="5295" xmlns:xlink="http://www.w3.org/1999/xlink" width="200" height="200"><defs><style type="text/css"></style></defs><path d="M704 448c-141.38 0-256 114.62-256 256s114.62 256 256 256 256-114.62 256-256-114.62-256-256-256z m181 285.68L843.17 742a13.77 13.77 0 0 0-10.22 8.84q-2.08 5.72-4.64 11.19a13.78 13.78 0 0 0 1 13.49L852.94 811a13.71 13.71 0 0 1-1.71 17.3l-22.88 22.88a13.71 13.71 0 0 1-17.3 1.71l-35.48-23.65a13.78 13.78 0 0 0-13.49-1q-5.47 2.56-11.19 4.64a13.77 13.77 0 0 0-8.89 10.29L733.68 885a13.71 13.71 0 0 1-13.44 11h-32.37a13.71 13.71 0 0 1-13.44-11l-8.36-41.81a13.77 13.77 0 0 0-8.84-10.22q-5.72-2.08-11.19-4.64a13.78 13.78 0 0 0-13.49 1l-35.48 23.65a13.71 13.71 0 0 1-17.3-1.71l-22.88-22.88a13.71 13.71 0 0 1-1.71-17.3l23.65-35.48a13.77 13.77 0 0 0 1-13.49q-2.56-5.47-4.64-11.19a13.77 13.77 0 0 0-10.25-8.93l-41.81-8.36a13.71 13.71 0 0 1-11-13.44v-32.33a13.71 13.71 0 0 1 11-13.44l41.81-8.36a13.77 13.77 0 0 0 10.22-8.84q2.08-5.72 4.64-11.19a13.77 13.77 0 0 0-1-13.49l-23.65-35.48a13.71 13.71 0 0 1 1.71-17.3l22.88-22.88a13.71 13.71 0 0 1 17.3-1.71l35.48 23.65a13.78 13.78 0 0 0 13.49 1q5.47-2.56 11.19-4.64a13.77 13.77 0 0 0 8.84-10.22l8.36-41.81a13.71 13.71 0 0 1 13.44-11h32.36a13.71 13.71 0 0 1 13.44 11l8.36 41.78a13.77 13.77 0 0 0 8.84 10.22q5.72 2.08 11.19 4.64a13.78 13.78 0 0 0 13.49-1L811 555.17a13.71 13.71 0 0 1 17.3 1.71l22.88 22.88a13.71 13.71 0 0 1 1.71 17.3l-23.65 35.48a13.78 13.78 0 0 0-1 13.49q2.56 5.47 4.64 11.19a13.77 13.77 0 0 0 10.22 8.84l41.9 8.37a13.71 13.71 0 0 1 11 13.44v32.36a13.71 13.71 0 0 1-11 13.45zM704.05 621.79a82.26 82.26 0 1 0 58.17 24.09 81.72 81.72 0 0 0-58.17-24.09z" p-id="5296"></path><path d="M536.42 510.46A195.07 195.07 0 0 1 512 512a192 192 0 1 1 137.69-58.21 257.16 257.16 0 0 1 83.1-4.17A254.74 254.74 0 0 0 768 320c0-141.38-114.62-256-256-256S256 178.62 256 320a255.76 255.76 0 0 0 116 214.32C193.13 593.12 64 761.48 64 960h64c0-201.84 155.72-367.3 353.57-382.81a257.17 257.17 0 0 1 54.85-66.73zM935.46 813.47a256.53 256.53 0 0 1-47.41 68.45A385.67 385.67 0 0 1 896 960h64a447.31 447.31 0 0 0-24.54-146.53z" p-id="5297"></path></svg>